<svg xmlns="http://www.w3.org/2000/svg" width="24.827" height="24.824" viewBox="0 0 24.827 24.824">
  <path id="add-group" d="M14.377,16.773a9.207,9.207,0,0,0-1.934-1.032,4.936,4.936,0,0,0,1.605-3.256,7.3,7.3,0,0,1,9.256-.757.97.97,0,1,0,1.11-1.591A9.217,9.217,0,0,0,22.479,9.1a4.945,4.945,0,1,0-6.658-.011q-.2.078-.4.166a9.209,9.209,0,0,0-1.708.981,4.945,4.945,0,1,0-7.934,5.481,9.326,9.326,0,0,0-5.632,5.8,2.909,2.909,0,0,0,2.769,3.8H11.35a.97.97,0,0,0,0-1.939H2.913a.97.97,0,0,1-.923-1.267A7.482,7.482,0,0,1,9.1,17.057a7.253,7.253,0,0,1,4.169,1.307.97.97,0,1,0,1.109-1.591ZM19.156,2.439A3.006,3.006,0,1,1,16.15,5.445,3.009,3.009,0,0,1,19.156,2.439ZM9.119,9.076a3.006,3.006,0,1,1-3.006,3.006A3.01,3.01,0,0,1,9.119,9.076ZM24.829,20.718a.97.97,0,0,1-.97.97H21.192v2.667a.97.97,0,1,1-1.939,0V21.688H16.586a.97.97,0,0,1,0-1.939h2.667V17.082a.97.97,0,0,1,1.939,0v2.667h2.667A.97.97,0,0,1,24.829,20.718Zm0,0" transform="translate(-0.001 -0.5)" fill="#f7dd0a"/>
</svg>
