<svg xmlns="http://www.w3.org/2000/svg" width="34.461" height="25.917" viewBox="0 0 34.461 25.917">
  <g id="credit-card" transform="translate(0 -60.15)">
    <g id="Group_10186" data-name="Group 10186" transform="translate(0 60.15)">
      <g id="Group_10183" data-name="Group 10183" transform="translate(10.257 8.276)">
        <g id="Group_10182" data-name="Group 10182">
          <path id="Path_10716" data-name="Path 10716" d="M165.481,176.681h-17.9a3.164,3.164,0,0,0-3.153,3.153v11.335a3.164,3.164,0,0,0,3.153,3.153h17.9a3.164,3.164,0,0,0,3.153-3.153V179.834A3.155,3.155,0,0,0,165.481,176.681Zm1.456,14.531a1.147,1.147,0,0,1-1.143,1.143H147.549a1.147,1.147,0,0,1-1.143-1.143v-7.975h20.532Zm0-10.98H146.405V179.8a1.147,1.147,0,0,1,1.143-1.143h18.245a1.147,1.147,0,0,1,1.143,1.143Z" transform="translate(-144.431 -176.681)" fill="#f7dd0a"/>
        </g>
      </g>
      <g id="Group_10184" data-name="Group 10184" transform="translate(0 0)">
        <path id="Path_10717" data-name="Path 10717" d="M13.184,66.48h11.1l-2.258-4.574a3.16,3.16,0,0,0-4.233-1.427L1.757,68.4A3.16,3.16,0,0,0,.329,72.638L5.357,82.8a3.16,3.16,0,0,0,3.657,1.648,4.748,4.748,0,0,1-.668-2.436V71.324A4.848,4.848,0,0,1,13.184,66.48Z" transform="translate(0 -60.15)" fill="#f7dd0a"/>
      </g>
      <g id="Group_10185" data-name="Group 10185" transform="translate(13.418 18.631)">
        <path id="Path_10718" data-name="Path 10718" d="M190.976,326.572a2.02,2.02,0,0,0,1.548-.717,2.045,2.045,0,1,0,0-2.656,2.043,2.043,0,1,0-1.548,3.373Z" transform="translate(-188.931 -322.481)" fill="#f7dd0a"/>
      </g>
    </g>
  </g>
</svg>
