<svg xmlns="http://www.w3.org/2000/svg" width="245" height="245" viewBox="0 0 245 245">
  <g id="Group_10122" data-name="Group 10122" transform="translate(-0.409 -0.182)">
    <g id="Group_12290" data-name="Group 12290" transform="translate(0)">
      <circle id="Ellipse_1204" data-name="Ellipse 1204" cx="122.5" cy="122.5" r="122.5" transform="translate(0.409 0.182)" fill="#feffeb" opacity="0.087"/>
      <circle id="Ellipse_1205" data-name="Ellipse 1205" cx="6.646" cy="6.646" r="6.646" transform="translate(194.948 78.99)" fill="#fff"/>
      <circle id="Ellipse_1206" data-name="Ellipse 1206" cx="9.178" cy="9.178" r="9.178" transform="translate(208.239 58.102)" fill="#fff"/>
      <circle id="Ellipse_1207" data-name="Ellipse 1207" cx="2.532" cy="2.532" r="2.532" transform="translate(192.415 60.634)" fill="#fff"/>
    </g>
    <g id="Group_12345" data-name="Group 12345" transform="translate(72 50.087)">
      <path id="Path_19608" data-name="Path 19608" d="M10,139.53H78.563l27.386-27.386V10H10Zm0,0" transform="translate(0.174 -10)" fill="#fdffb4" fill-rule="evenodd"/>
      <path id="Path_19609" data-name="Path 19609" d="M270.426,425.366V397.98h27.386Zm0,0" transform="translate(-199.23 -287.654)" fill="#fdffb4" fill-rule="evenodd"/>
      <path id="Path_19610" data-name="Path 19610" d="M2.633,105.835A2.633,2.633,0,0,0,5.265,103.2V5.265H95.948v5.266a2.633,2.633,0,1,0,5.265,0v-7.9A2.633,2.633,0,0,0,98.581,0H2.633A2.633,2.633,0,0,0,0,2.633V103.2A2.633,2.633,0,0,0,2.633,105.835Zm0,0" transform="translate(0 5.549)" fill="#535c7d" fill-rule="evenodd"/>
      <path id="Path_19611" data-name="Path 19611" d="M98.581,110a2.633,2.633,0,0,0-2.633,2.633v70.551H71.2a2.633,2.633,0,0,0-2.633,2.633v24.753H5.265v-5.266a2.633,2.633,0,0,0-5.265,0v7.9a2.633,2.633,0,0,0,2.633,2.633H71.2l.041,0c.072,0,.144,0,.216-.01.044,0,.087-.013.131-.02s.083-.01.123-.019.087-.022.132-.032.079-.019.118-.03.08-.029.12-.043.082-.027.122-.043.071-.034.106-.05.086-.038.128-.06.065-.038.1-.058.084-.047.124-.075.073-.053.109-.08.068-.047.1-.074a2.24,2.24,0,0,0,.194-.176l27.386-27.386a2.531,2.531,0,0,0,.228-.265c.019-.023.036-.046.052-.07a2.728,2.728,0,0,0,.182-.289l.008-.019a2.6,2.6,0,0,0,.13-.3c.01-.027.021-.054.03-.082a2.73,2.73,0,0,0,.09-.326.02.02,0,0,1,0-.007,2.7,2.7,0,0,0,.04-.33c0-.03,0-.06.005-.089s0-.059,0-.088V112.636A2.633,2.633,0,0,0,98.581,110ZM73.828,206.85v-18.4h18.4Zm0,0" transform="translate(0 -75.494)" fill="#6e6e6e" fill-rule="evenodd"/>
      <path id="Path_19612" data-name="Path 19612" d="M247.273,105.768a2.632,2.632,0,0,0-3.723,0l-5.949,5.949-5.95-5.949a2.632,2.632,0,0,0-3.723,3.723l5.949,5.949-5.949,5.95a2.632,2.632,0,0,0,3.723,3.723l5.95-5.949,5.949,5.949a2.632,2.632,0,1,0,3.723-3.723l-5.949-5.95,5.949-5.949A2.632,2.632,0,0,0,247.273,105.768Zm0,0" transform="translate(-167.352 -71.805)" fill="#535c7d" fill-rule="evenodd"/>
      <path id="Path_19613" data-name="Path 19613" d="M82.232,270.691c6.584-5.3,15.988-8.347,25.8-8.347s19.217,3.043,25.8,8.347a2.633,2.633,0,1,0,3.3-4.1c-7.5-6.045-18.111-9.513-29.1-9.513s-21.6,3.468-29.1,9.513a2.633,2.633,0,1,0,3.3,4.1Zm0,0" transform="translate(-57.425 -183.847)" fill="#535c7d" fill-rule="evenodd"/>
      <path id="Path_19614" data-name="Path 19614" d="M78.721,125.11a2.633,2.633,0,0,0,3.723,0l5.949-5.949,5.949,5.949a2.633,2.633,0,0,0,3.724-3.723l-5.949-5.949,5.949-5.95a2.633,2.633,0,0,0-3.724-3.723l-5.949,5.949-5.949-5.949a2.632,2.632,0,0,0-3.723,3.723l5.949,5.95-5.949,5.949A2.633,2.633,0,0,0,78.721,125.11Zm0,0" transform="translate(-57.427 -71.802)" fill="#535c7d" fill-rule="evenodd"/>
      <path id="Path_19615" data-name="Path 19615" d="M2.633,427.262A2.633,2.633,0,1,0,0,424.629,2.637,2.637,0,0,0,2.633,427.262Zm0,0" transform="translate(0 -305.347)" fill="#535c7d" fill-rule="evenodd"/>
      <path id="Path_19616" data-name="Path 19616" d="M367.078,70a2.633,2.633,0,1,0,2.633,2.633A2.637,2.637,0,0,0,367.078,70Zm0,0" transform="translate(-268.496 -46.025)" fill="#535c7d" fill-rule="evenodd"/>
    </g>
  </g>
</svg>
