<svg xmlns="http://www.w3.org/2000/svg" width="227.522" height="28.834" viewBox="0 0 227.522 28.834">
  <g id="Group_2326" data-name="Group 2326" transform="translate(-1448.189 -5058)">
    <g id="visa" transform="translate(1516.189 5058)">
      <path id="Path_892" data-name="Path 892" d="M41.811,105.814a2.472,2.472,0,0,1-2.471,2.472H2.471A2.471,2.471,0,0,1,0,105.814V81.923a2.471,2.471,0,0,1,2.471-2.472H39.339a2.471,2.471,0,0,1,2.471,2.472v23.891Z" transform="translate(0 -79.451)" fill="#fff"/>
      <path id="Path_893" data-name="Path 893" d="M37.291,195.31l-.982-4.71a1.171,1.171,0,0,0-1.266-.868h-4.5l-.04.215C34.008,190.8,36.327,192.847,37.291,195.31Z" transform="translate(-28.011 -180.726)" fill="#f79f1a"/>
      <g id="Group_812" data-name="Group 812" transform="translate(0 0)">
        <path id="Path_894" data-name="Path 894" d="M188.224,190.892h-2.908L183.5,201.551h2.9Z" transform="translate(-168.514 -181.792)" fill="#059bbf"/>
        <path id="Path_895" data-name="Path 895" d="M71.512,201.622l4.574-10.641H73.008l-2.845,7.27-.3-1.1a11.373,11.373,0,0,0-4.023-4.418l2.6,8.89Z" transform="translate(-60.46 -181.873)" fill="#059bbf"/>
        <path id="Path_896" data-name="Path 896" d="M249.651,196.016c.011-1.21-.766-2.133-2.441-2.9-1.018-.492-1.638-.821-1.63-1.32,0-.441.525-.916,1.663-.916a5.364,5.364,0,0,1,2.174.409l.263.12.394-2.309a7.533,7.533,0,0,0-2.6-.445c-2.871,0-4.892,1.445-4.91,3.517-.018,1.532,1.445,2.386,2.546,2.9,1.131.521,1.51.854,1.5,1.321-.007.714-.9,1.04-1.736,1.04a6.1,6.1,0,0,1-2.736-.559l-.372-.171-.408,2.389a9.166,9.166,0,0,0,3.235.566C247.644,199.657,249.629,198.231,249.651,196.016Z" transform="translate(-221.646 -179.741)" fill="#059bbf"/>
        <path id="Path_897" data-name="Path 897" d="M344.047,200.077l3.721,0c.088.371.354,1.6.354,1.6h2.7l-2.353-10.652h-2.243a1.446,1.446,0,0,0-1.521.883l-4.315,9.769h3.053S343.934,200.366,344.047,200.077Zm1.992-5.162c-.014.029.241-.616.387-1.018l.2.919s.555,2.546.671,3.079h-2.411C345.123,197.283,346.039,194.916,346.039,194.916Z" transform="translate(-312.589 -181.916)" fill="#059bbf"/>
        <path id="Path_898" data-name="Path 898" d="M39.339,79.451H2.471A2.471,2.471,0,0,0,0,81.923v2.565H41.811V81.923A2.471,2.471,0,0,0,39.339,79.451Z" transform="translate(0 -79.451)" fill="#059bbf"/>
      </g>
      <path id="Path_899" data-name="Path 899" d="M39.339,375.908H2.471A2.472,2.472,0,0,1,0,373.436v-2.565H41.811v2.565A2.471,2.471,0,0,1,39.339,375.908Z" transform="translate(0 -347.073)" fill="#f79f1a"/>
      <path id="Path_900" data-name="Path 900" d="M1.757,105.814V81.923a2.472,2.472,0,0,1,2.472-2.472H2.471A2.471,2.471,0,0,0,0,81.923v23.891a2.472,2.472,0,0,0,2.471,2.472H4.229A2.472,2.472,0,0,1,1.757,105.814Z" transform="translate(0 -79.451)" fill="#202121" opacity="0.15"/>
    </g>
    <g id="mastercard" transform="translate(1448.189 5058)">
      <path id="Path_901" data-name="Path 901" d="M229.954,114.977a14.177,14.177,0,0,1-28.354,0h0a14.177,14.177,0,1,1,28.354,0Z" transform="translate(-182.697 -100.8)" fill="#ffb600"/>
      <path id="Path_902" data-name="Path 902" d="M215.777,100.8a14.214,14.214,0,0,1,14.177,14.177h0a14.177,14.177,0,0,1-28.354,0" transform="translate(-182.697 -100.8)" fill="#f7981d"/>
      <path id="Path_903" data-name="Path 903" d="M352.8,100.8a14.214,14.214,0,0,1,14.177,14.177h0A14.166,14.166,0,0,1,352.8,129.154" transform="translate(-319.72 -100.8)" fill="#ff8500"/>
      <path id="Path_904" data-name="Path 904" d="M14.027,100.8a14.177,14.177,0,0,0,.15,28.354,14.342,14.342,0,0,0,9.526-3.676h0a13.479,13.479,0,0,0,1.425-1.5H22.2a17.3,17.3,0,0,1-1.05-1.425h5.026a9.608,9.608,0,0,0,.825-1.5H20.328a8.94,8.94,0,0,1-.6-1.5h7.8a14.9,14.9,0,0,0,.75-4.5,19.362,19.362,0,0,0-.3-3h-8.7a10.967,10.967,0,0,1,.375-1.5h7.8a8.941,8.941,0,0,0-.6-1.5h-6.6a14.877,14.877,0,0,1,.825-1.5H26.1a7.133,7.133,0,0,0-1.125-1.5H22.2a12.785,12.785,0,0,1,1.425-1.425A13.842,13.842,0,0,0,14.1,100.95C14.1,100.8,14.1,100.8,14.027,100.8Z" transform="translate(0 -100.8)" fill="#ff5050"/>
      <path id="Path_905" data-name="Path 905" d="M0,116.427A14.166,14.166,0,0,0,14.177,130.6a14.342,14.342,0,0,0,9.526-3.676h0a13.479,13.479,0,0,0,1.425-1.5H22.2A17.306,17.306,0,0,1,21.153,124h5.026A9.609,9.609,0,0,0,27,122.5H20.328a8.94,8.94,0,0,1-.6-1.5h7.8a14.9,14.9,0,0,0,.75-4.5,19.361,19.361,0,0,0-.3-3h-8.7a10.966,10.966,0,0,1,.375-1.5h7.8a8.94,8.94,0,0,0-.6-1.5h-6.6a14.875,14.875,0,0,1,.825-1.5H26.1a7.133,7.133,0,0,0-1.125-1.5H22.2a12.785,12.785,0,0,1,1.425-1.425A13.842,13.842,0,0,0,14.1,102.4h-.075" transform="translate(0 -102.25)" fill="#e52836"/>
      <path id="Path_906" data-name="Path 906" d="M149.75,130.6a14.342,14.342,0,0,0,9.526-3.676h0a13.48,13.48,0,0,0,1.425-1.5h-2.925a17.309,17.309,0,0,1-1.05-1.425h5.026a9.61,9.61,0,0,0,.825-1.5H155.9a8.94,8.94,0,0,1-.6-1.5h7.8a14.9,14.9,0,0,0,.75-4.5,19.361,19.361,0,0,0-.3-3h-8.7a10.966,10.966,0,0,1,.375-1.5h7.8a8.94,8.94,0,0,0-.6-1.5h-6.6a14.877,14.877,0,0,1,.825-1.5h5.026a7.133,7.133,0,0,0-1.125-1.5h-2.775a12.785,12.785,0,0,1,1.425-1.425,13.842,13.842,0,0,0-9.526-3.676H149.6" transform="translate(-135.573 -102.25)" fill="#cb2026"/>
      <g id="Group_813" data-name="Group 813" transform="translate(1.35 10.501)">
        <path id="Path_907" data-name="Path 907" d="M183.775,226.6l.225-1.275a3.249,3.249,0,0,1-.375.075c-.525,0-.6-.3-.525-.45l.45-2.625h.825l.225-1.425h-.75l.15-.9h-1.5s-.9,4.951-.9,5.551a1.126,1.126,0,0,0,1.2,1.275A2.3,2.3,0,0,0,183.775,226.6Z" transform="translate(-165.923 -219.325)" fill="#fff"/>
        <path id="Path_908" data-name="Path 908" d="M210.4,232.084a2.386,2.386,0,0,0,2.625,2.625,3.894,3.894,0,0,0,1.575-.225l.3-1.425a4.5,4.5,0,0,1-1.575.375c-1.65,0-1.35-1.2-1.35-1.2h3.075a9.725,9.725,0,0,0,.225-1.35,2.032,2.032,0,0,0-2.175-2.175C211.525,228.558,210.4,230.208,210.4,232.084Zm2.625-2.175c.825,0,.675.975.675,1.05h-1.65C212.05,230.884,212.2,229.908,213.025,229.908Z" transform="translate(-192.022 -227.208)" fill="#fff"/>
        <path id="Path_909" data-name="Path 909" d="M300.126,220.076l.3-1.65a3.686,3.686,0,0,1-1.275.375c-1.05,0-1.5-.825-1.5-1.725,0-1.8.9-2.775,1.95-2.775a2.5,2.5,0,0,1,1.35.45l.225-1.575a5.274,5.274,0,0,0-1.725-.375c-1.725,0-3.451,1.5-3.451,4.351,0,1.875.9,3.15,2.7,3.15A6.732,6.732,0,0,0,300.126,220.076Z" transform="translate(-269.596 -212.8)" fill="#fff"/>
        <path id="Path_910" data-name="Path 910" d="M89.25,227.2a5.312,5.312,0,0,0-1.8.3l-.225,1.275a4.434,4.434,0,0,1,1.65-.3c.525,0,.975.075.975.525,0,.3-.075.375-.075.375H89.1c-1.275,0-2.7.525-2.7,2.25,0,1.35.9,1.65,1.425,1.65A2.254,2.254,0,0,0,89.4,232.6l-.075.6h1.35l.6-4.126A1.778,1.778,0,0,0,89.25,227.2Zm.3,3.375c0,.225-.15,1.425-1.05,1.425a.586.586,0,0,1-.6-.6c0-.375.225-.9,1.35-.9A1.183,1.183,0,0,0,89.55,230.575Z" transform="translate(-79.649 -225.85)" fill="#fff"/>
        <path id="Path_911" data-name="Path 911" d="M136.925,232.551a1.923,1.923,0,0,0,2.25-1.95c0-1.875-1.8-1.5-1.8-2.25,0-.375.3-.525.825-.525.225,0,1.05.075,1.05.075l.225-1.35a5.7,5.7,0,0,0-1.425-.15c-1.125,0-2.25.45-2.25,1.95,0,1.725,1.875,1.575,1.875,2.25,0,.45-.525.525-.9.525a4.905,4.905,0,0,1-1.35-.225l-.225,1.35C135.275,232.4,135.65,232.551,136.925,232.551Z" transform="translate(-123.873 -225.125)" fill="#fff"/>
        <path id="Path_912" data-name="Path 912" d="M431.476,214.4l-.3,2.025a2.08,2.08,0,0,0-1.425-.75c-1.35,0-2.55,1.65-2.55,3.6,0,1.2.6,2.475,1.875,2.475a2,2,0,0,0,1.425-.6l-.075.525h1.5l1.125-7.2Zm-.675,3.976c0,.825-.375,1.875-1.2,1.875-.525,0-.825-.45-.825-1.2,0-1.2.525-1.95,1.2-1.95C430.5,217.1,430.8,217.475,430.8,218.376Z" transform="translate(-388.494 -214.25)" fill="#fff"/>
        <path id="Path_913" data-name="Path 913" d="M15.825,221.6l.9-5.4.15,5.4h1.05l1.95-5.4-.825,5.4h1.575l1.2-7.2H19.351l-1.5,4.426-.075-4.426H15.6l-1.2,7.2Z" transform="translate(-14.4 -214.25)" fill="#fff"/>
        <path id="Path_914" data-name="Path 914" d="M261.65,234.651c.45-2.475.525-4.5,1.575-4.126a5.888,5.888,0,0,1,.525-1.725h-.3c-.675,0-1.2.9-1.2.9l.15-.825h-1.425L260,234.726h1.65Z" transform="translate(-236.972 -227.3)" fill="#fff"/>
        <path id="Path_915" data-name="Path 915" d="M349.25,227.2a5.312,5.312,0,0,0-1.8.3l-.225,1.275a4.434,4.434,0,0,1,1.65-.3c.525,0,.975.075.975.525,0,.3-.075.375-.075.375H349.1c-1.275,0-2.7.525-2.7,2.25,0,1.35.9,1.65,1.425,1.65a2.254,2.254,0,0,0,1.575-.675l-.075.6h1.35l.6-4.126A1.751,1.751,0,0,0,349.25,227.2Zm.375,3.375c0,.225-.15,1.425-1.05,1.425a.586.586,0,0,1-.6-.6c0-.375.225-.9,1.35-.9C349.55,230.575,349.55,230.575,349.625,230.575Z" transform="translate(-315.271 -225.85)" fill="#fff"/>
        <path id="Path_916" data-name="Path 916" d="M396.05,234.651c.45-2.475.525-4.5,1.575-4.126a5.888,5.888,0,0,1,.525-1.725h-.3c-.675,0-1.2.9-1.2.9l.15-.825h-1.425l-.975,5.851h1.65Z" transform="translate(-358.77 -227.3)" fill="#fff"/>
      </g>
      <g id="Group_814" data-name="Group 814" transform="translate(1.35 10.501)">
        <path id="Path_917" data-name="Path 917" d="M180,225.551a1.126,1.126,0,0,0,1.2,1.275,2.855,2.855,0,0,0,1.125-.225l.225-1.275a3.248,3.248,0,0,1-.375.075c-.525,0-.6-.3-.525-.45l.45-2.625h.825l.225-1.425h-.75l.15-.9" transform="translate(-164.473 -219.325)" fill="#dce5e5"/>
        <path id="Path_918" data-name="Path 918" d="M218.4,232.084c0,2.1.675,2.625,1.875,2.625a3.894,3.894,0,0,0,1.575-.225l.3-1.425a4.5,4.5,0,0,1-1.575.375c-1.65,0-1.35-1.2-1.35-1.2H222.3a9.725,9.725,0,0,0,.225-1.35,2.032,2.032,0,0,0-2.175-2.175C218.775,228.558,218.4,230.208,218.4,232.084Zm1.875-2.175c.825,0,.975.975.975,1.05H219.3C219.3,230.884,219.45,229.908,220.275,229.908Z" transform="translate(-199.272 -227.208)" fill="#dce5e5"/>
        <path id="Path_919" data-name="Path 919" d="M307.375,220.076l.3-1.65a3.686,3.686,0,0,1-1.275.375c-1.05,0-1.5-.825-1.5-1.725,0-1.8.9-2.775,1.95-2.775a2.5,2.5,0,0,1,1.35.45l.225-1.575a5.274,5.274,0,0,0-1.725-.375c-1.725,0-2.7,1.5-2.7,4.351,0,1.875.15,3.15,1.95,3.15A6.732,6.732,0,0,0,307.375,220.076Z" transform="translate(-276.846 -212.8)" fill="#dce5e5"/>
        <path id="Path_920" data-name="Path 920" d="M87.225,230.3a4.434,4.434,0,0,1,1.65-.3c.525,0,.975.075.975.525,0,.3-.075.375-.075.375H89.1c-1.275,0-2.7.525-2.7,2.25,0,1.35.9,1.65,1.425,1.65a2.254,2.254,0,0,0,1.575-.675l-.075.6h1.35l.6-4.126c0-1.725-1.5-1.8-2.1-1.8m1.125,3.225a2.456,2.456,0,0,1-1.8,1.425.586.586,0,0,1-.6-.6c0-.375.225-.9,1.35-.9A6.131,6.131,0,0,0,90.3,232.025Z" transform="translate(-79.649 -227.3)" fill="#dce5e5"/>
        <path id="Path_921" data-name="Path 921" d="M136,232.4a6.349,6.349,0,0,0,1.725.15,1.923,1.923,0,0,0,2.25-1.95c0-1.875-1.8-1.5-1.8-2.25,0-.375.3-.525.825-.525.225,0,1.05.075,1.05.075l.225-1.35a5.7,5.7,0,0,0-1.425-.15c-1.125,0-1.5.45-1.5,1.95,0,1.725,1.125,1.575,1.125,2.25,0,.45-.525.525-.9.525" transform="translate(-124.598 -225.125)" fill="#dce5e5"/>
        <path id="Path_922" data-name="Path 922" d="M438.373,217.15a2.08,2.08,0,0,0-1.425-.75c-1.35,0-1.8,1.65-1.8,3.6,0,1.2-.15,2.475,1.125,2.475a2,2,0,0,0,1.425-.6l-.075.525h1.5l1.125-7.2m-1.95,3.9c0,.825-.675,1.875-1.5,1.875-.525,0-.825-.45-.825-1.2,0-1.2.525-1.95,1.2-1.95A1.146,1.146,0,0,1,438.3,219.1Z" transform="translate(-395.692 -214.975)" fill="#dce5e5"/>
        <path id="Path_923" data-name="Path 923" d="M15.825,221.6l.9-5.4.15,5.4h1.05l1.95-5.4-.825,5.4h1.575l1.2-7.2H19.951l-2.1,4.426-.075-4.426H16.95l-2.55,7.2Z" transform="translate(-14.4 -214.25)" fill="#dce5e5"/>
        <path id="Path_924" data-name="Path 924" d="M260.8,234.651h1.575c.45-2.475.525-4.5,1.575-4.126a5.888,5.888,0,0,1,.525-1.725h-.3c-.675,0-1.2.9-1.2.9l.15-.825" transform="translate(-237.697 -227.3)" fill="#dce5e5"/>
        <path id="Path_925" data-name="Path 925" d="M347.225,230.3a4.434,4.434,0,0,1,1.65-.3c.525,0,.975.075.975.525,0,.3-.075.375-.075.375H349.1c-1.275,0-2.7.525-2.7,2.25,0,1.35.9,1.65,1.425,1.65a2.254,2.254,0,0,0,1.575-.675l-.075.6h1.35l.6-4.126c0-1.725-1.5-1.8-2.1-1.8m1.125,3.225a2.456,2.456,0,0,1-1.8,1.425.586.586,0,0,1-.6-.6c0-.375.225-.9,1.35-.9A6.6,6.6,0,0,0,350.3,232.025Z" transform="translate(-315.271 -227.3)" fill="#dce5e5"/>
        <path id="Path_926" data-name="Path 926" d="M395.2,234.651h1.575c.45-2.475.525-4.5,1.575-4.126a5.888,5.888,0,0,1,.525-1.725h-.3c-.675,0-1.2.9-1.2.9l.15-.825" transform="translate(-359.495 -227.3)" fill="#dce5e5"/>
      </g>
    </g>
    <g id="paypal" transform="translate(1578.743 5061.571)">
      <path id="Path_927" data-name="Path 927" d="M355.358,221.2h-5.233a1.023,1.023,0,0,0-.77.616L347.2,235.36a.408.408,0,0,0,.462.462h2.771a.408.408,0,0,0,.462-.462l.616-3.848a.7.7,0,0,1,.77-.616h1.693q5.31,0,6-5.079a4.035,4.035,0,0,0-.616-3.386,6.208,6.208,0,0,0-4-1.231m.616,5.079c-.308,1.847-1.693,1.847-3.078,1.847h-.924l.616-3.54c0-.154.154-.308.462-.308h.308c.924,0,1.847,0,2.309.616.308.154.308.616.308,1.385" transform="translate(-280.4 -214.735)" fill="#139ad6"/>
      <g id="Group_815" data-name="Group 815" transform="translate(29.09 6.465)">
        <path id="Path_928" data-name="Path 928" d="M159.358,221.2h-5.233a1.023,1.023,0,0,0-.77.616L151.2,235.36a.408.408,0,0,0,.462.462h2.463a1.023,1.023,0,0,0,.77-.616l.616-3.694a.7.7,0,0,1,.77-.616h1.693q5.31,0,6-5.079a4.034,4.034,0,0,0-.616-3.386,5.916,5.916,0,0,0-4-1.231m.616,5.079c-.308,1.847-1.693,1.847-3.078,1.847h-.77l.616-3.54c0-.154.154-.308.462-.308h.308c.924,0,1.847,0,2.309.616a1.649,1.649,0,0,1,.154,1.385" transform="translate(-151.2 -221.2)" fill="#05829e"/>
        <path id="Path_929" data-name="Path 929" d="M225.847,245.508h-2.463c-.154,0-.462.154-.462.308l-.154.77-.154-.308a3.621,3.621,0,0,0-2.924-1.077A5.914,5.914,0,0,0,214,250.279a4.588,4.588,0,0,0,.924,3.848,3.879,3.879,0,0,0,3.232,1.231,4.92,4.92,0,0,0,3.54-1.385l-.154.77a.408.408,0,0,0,.462.462h2.309a1.023,1.023,0,0,0,.77-.616l1.385-8.619c-.154-.154-.462-.462-.616-.462m-3.54,4.925a2.977,2.977,0,0,1-2.924,2.463,2.461,2.461,0,0,1-1.693-.616,3.282,3.282,0,0,1-.462-1.847,2.745,2.745,0,0,1,4.464-1.847,2.687,2.687,0,0,1,.616,1.847" transform="translate(-201.836 -240.582)" fill="#05829e"/>
      </g>
      <path id="Path_930" data-name="Path 930" d="M421.047,245.508h-2.463c-.154,0-.462.154-.462.308l-.154.77-.154-.308a3.62,3.62,0,0,0-2.924-1.077,5.914,5.914,0,0,0-5.695,5.079,4.588,4.588,0,0,0,.923,3.848,3.879,3.879,0,0,0,3.232,1.231,4.92,4.92,0,0,0,3.54-1.385l-.154.77a.408.408,0,0,0,.462.462h2.309a1.023,1.023,0,0,0,.77-.616l1.385-8.619c-.154-.154-.308-.462-.616-.462m-3.54,4.925a2.977,2.977,0,0,1-2.924,2.463,2.461,2.461,0,0,1-1.693-.616,3.283,3.283,0,0,1-.462-1.847,2.745,2.745,0,0,1,4.464-1.847,1.766,1.766,0,0,1,.616,1.847" transform="translate(-330.389 -234.118)" fill="#139ad6"/>
      <path id="Path_931" data-name="Path 931" d="M295.852,246.8h-2.617a.8.8,0,0,0-.616.308l-3.386,5.233-1.539-4.925a.711.711,0,0,0-.77-.462h-2.463c-.308,0-.462.308-.462.616l2.771,8.158-2.617,3.694c-.154.308,0,.77.308.77h2.463a.8.8,0,0,0,.616-.308l8.465-12.16c.462-.462.154-.923-.154-.923" transform="translate(-229.359 -235.41)" fill="#05829e"/>
      <path id="Path_932" data-name="Path 932" d="M477.355,222.054,475.2,235.907a.408.408,0,0,0,.462.462h2.155a1.023,1.023,0,0,0,.77-.616l2.155-13.545a.408.408,0,0,0-.462-.462h-2.463c-.154-.154-.308,0-.462.308" transform="translate(-383.773 -215.128)" fill="#139ad6"/>
      <path id="Path_933" data-name="Path 933" d="M17.7,189.447c-1.077-1.231-3.078-1.847-5.849-1.847h-7.7a1.32,1.32,0,0,0-1.077.924L0,208.687a.7.7,0,0,0,.616.77H5.387l1.231-7.542v.308A1.32,1.32,0,0,1,7.7,201.3H10c4.464,0,7.85-1.847,8.927-6.926v-.462h0a5.375,5.375,0,0,0-1.231-4.464" transform="translate(0 -187.6)" fill="#07587d"/>
      <path id="Path_934" data-name="Path 934" d="M39.453,220.4h0v.462c-1.077,5.233-4.464,6.926-8.927,6.926H28.217a1.32,1.32,0,0,0-1.077.923L25.6,238.1a.564.564,0,0,0,.616.616h4a.862.862,0,0,0,.924-.77v-.154l.77-4.771v-.308a.862.862,0,0,1,.924-.77h.616c3.848,0,6.926-1.539,7.7-6.157.308-1.847.154-3.54-.77-4.618a1.576,1.576,0,0,0-.924-.77" transform="translate(-20.675 -214.089)" fill="#139ad6"/>
      <path id="Path_935" data-name="Path 935" d="M45.482,216.062c-.154,0-.308-.154-.462-.154a.565.565,0,0,1-.462-.154,8.131,8.131,0,0,0-2-.154h-6a.565.565,0,0,0-.462.154.846.846,0,0,0-.462.77l-1.231,8v.308a1.32,1.32,0,0,1,1.077-.923h2.309c4.464,0,7.85-1.847,8.927-6.926a.565.565,0,0,1,.154-.462c-.308-.154-.462-.308-.77-.308-.462-.154-.462-.154-.616-.154" transform="translate(-27.782 -210.213)" fill="#fff"/>
    </g>
  </g>
</svg>
