<svg id="noun_filters_1245150" xmlns="http://www.w3.org/2000/svg" width="54.217" height="47.609" viewBox="0 0 54.217 47.609">
  <g id="Group_27" data-name="Group 27" transform="translate(0)">
    <path id="Path_234" data-name="Path 234" d="M31.923,20.1a7.093,7.093,0,0,0-6.767,5.1H17.911A1.906,1.906,0,0,0,16,27.186a1.971,1.971,0,0,0,1.99,1.99h7.245A7.021,7.021,0,0,0,32,34.271a7.117,7.117,0,0,0,6.847-5.1H68.226a1.99,1.99,0,0,0,0-3.981H38.849A7.289,7.289,0,0,0,31.923,20.1ZM32,24.081a3.1,3.1,0,1,1-3.1,3.1A3.109,3.109,0,0,1,32,24.081Z" transform="translate(-16 -20.1)" fill="#f7dd0a"/>
  </g>
  <g id="Group_28" data-name="Group 28" transform="translate(0 15.923)">
    <path id="Path_235" data-name="Path 235" d="M55.886,40.1a7.093,7.093,0,0,0-6.767,5.1H17.99A1.924,1.924,0,0,0,16,47.186a1.971,1.971,0,0,0,1.99,1.99H49.119a7.021,7.021,0,0,0,6.767,5.1,7.117,7.117,0,0,0,6.847-5.1h5.493a1.99,1.99,0,1,0,0-3.981H62.733A7.117,7.117,0,0,0,55.886,40.1Zm.08,3.981a3.1,3.1,0,1,1-3.1,3.1A3.059,3.059,0,0,1,55.966,44.081Z" transform="translate(-16 -40.1)" fill="#fcf5bb"/>
  </g>
  <g id="Group_29" data-name="Group 29" transform="translate(0 33.438)">
    <path id="Path_236" data-name="Path 236" d="M41.476,62.1a7.093,7.093,0,0,0-6.767,5.1H17.99A1.924,1.924,0,0,0,16,69.186a1.971,1.971,0,0,0,1.99,1.99h16.8a7.021,7.021,0,0,0,6.767,5.1,7.117,7.117,0,0,0,6.847-5.1H68.226a1.99,1.99,0,0,0,0-3.981h-19.9A7.117,7.117,0,0,0,41.476,62.1Zm.08,3.981a3.1,3.1,0,1,1-3.1,3.1A3.161,3.161,0,0,1,41.556,66.081Z" transform="translate(-16 -62.1)" fill="#f7dd0a"/>
  </g>
</svg>
