<svg id="noun_Star_3234064" xmlns="http://www.w3.org/2000/svg" width="11.603" height="11.047" viewBox="0 0 11.603 11.047">
  <g id="Group_32" data-name="Group 32" transform="translate(0 0)">
    <path id="Path_237" data-name="Path 237" d="M101.493,123.947l-3.688-1.77-3.688,1.77L95,120.124l-2.8-2.791,3.983-.566,1.622-3.468,1.622,3.468,3.983.566-2.8,2.791Z" transform="translate(-92.002 -113.099)" fill="#f8a200"/>
    <g id="Group_31" data-name="Group 31">
      <path id="Path_238" data-name="Path 238" d="M86.956,108.924l-1.263-.606-1.985-.953c-.144-.069-.288-.142-.435-.208a.271.271,0,0,0-.258.023l-.224.108-1.9.913-1.485.713-.024.012.294.226.3-1.317q.24-1.035.479-2.07c.033-.144.073-.29.1-.435a.248.248,0,0,0-.095-.242l-.174-.172-1.442-1.437c-.374-.373-.741-.757-1.124-1.12a.243.243,0,0,1-.019-.019l-.088.335,1.3-.186,2.124-.3c.178-.025.357-.043.533-.076.143-.027.184-.187.238-.3l.836-1.785c.146-.31.291-.621.435-.931.081-.174.167-.344.243-.519a.188.188,0,0,0,.011-.024h-.346l.574,1.227q.443.943.884,1.888c.04.087.081.172.121.259a.354.354,0,0,0,.095.148.3.3,0,0,0,.164.049l.272.039,2.042.29,1,.142c.183.025.366.057.549.077l.025,0-.088-.335q-.475.473-.951.947l-1.511,1.5c-.112.112-.228.22-.336.335a.246.246,0,0,0-.045.247l.052.226q.228.985.455,1.969c.12.518.231,1.04.361,1.557a.173.173,0,0,1,.005.025.2.2,0,1,0,.387-.107c-.1-.43-.2-.861-.3-1.291l-.477-2.059c-.036-.158-.073-.315-.109-.474l-.052.195q.475-.473.951-.947l1.5-1.5.348-.346a.2.2,0,0,0-.088-.335l-1.354-.192-2.139-.3-.49-.069.12.092-.547-1.17-.873-1.867c-.067-.144-.135-.287-.2-.431a.2.2,0,0,0-.346,0l-.547,1.17-.873,1.867c-.067.144-.135.287-.2.431l.12-.092-1.354.192-2.139.3-.49.069c-.155.021-.184.239-.088.335q.475.473.951.947l1.5,1.5.349.346-.052-.195c-.1.43-.2.861-.3,1.291l-.477,2.059c-.036.158-.073.315-.109.474a.2.2,0,0,0,.294.226l1.252-.6,1.98-.951.455-.219h-.2l1.252.6,1.98.951.455.219a.205.205,0,0,0,.274-.072A.2.2,0,0,0,86.956,108.924Z" transform="translate(-77.364 -98.25)" fill="#f8a200"/>
    </g>
  </g>
</svg>
