<svg id="noun_Star_3234088" xmlns="http://www.w3.org/2000/svg" width="12.414" height="11.851" viewBox="0 0 12.414 11.851">
  <g id="Group_34" data-name="Group 34" transform="translate(0 0)">
    <g id="Group_33" data-name="Group 33">
      <path id="Path_239" data-name="Path 239" d="M57.2,78.732l-1.263-.606-1.985-.953c-.146-.069-.29-.14-.435-.208a.635.635,0,0,0-.307-.084.655.655,0,0,0-.308.084l-.045.023-.224.108-1.9.913-1.485.713-.024.012.883.678.3-1.317q.24-1.035.479-2.07c.033-.146.071-.29.1-.435A.628.628,0,0,0,50.822,75l-.039-.039-.174-.172-1.442-1.437c-.375-.374-.746-.75-1.124-1.12a.248.248,0,0,1-.019-.019c-.088.335-.176.669-.266,1l1.3-.186,2.124-.3c.178-.025.357-.045.533-.076a.576.576,0,0,0,.287-.158.4.4,0,0,0,.105-.146c.029-.06.057-.122.085-.183l.836-1.785c.227-.483.458-.965.68-1.451a.189.189,0,0,0,.011-.024H52.686l.574,1.227q.443.943.884,1.888a1.278,1.278,0,0,0,.319.519.539.539,0,0,0,.3.121l.272.039,2.042.29c.515.073,1.031.151,1.546.219l.025,0c-.088-.335-.176-.669-.266-1q-.475.473-.951.947l-1.511,1.5c-.112.112-.227.222-.336.335a.628.628,0,0,0-.159.591c0,.015.007.029.011.044l.052.226q.228.985.455,1.969c.12.518.235,1.039.361,1.557a.171.171,0,0,1,.005.025.6.6,0,0,0,1.159-.32c-.1-.43-.2-.861-.3-1.291l-.477-2.059c-.036-.158-.073-.315-.109-.474-.052.195-.1.39-.155.585q.475-.473.951-.947l1.5-1.5.348-.346a.6.6,0,0,0-.266-1.005l-1.354-.192-2.139-.3-.49-.069.359.276L54.8,70.6l-.873-1.867c-.067-.144-.135-.287-.2-.431a.6.6,0,0,0-1.039,0l-.547,1.17-.873,1.867c-.067.144-.135.287-.2.431l.359-.276-1.354.192-2.139.3-.49.069a.6.6,0,0,0-.266,1.005q.475.473.951.947l1.5,1.5.348.346c-.052-.195-.1-.39-.155-.585-.1.43-.2.861-.3,1.291l-.477,2.059c-.036.158-.073.315-.109.474a.608.608,0,0,0,.215.632.573.573,0,0,0,.284.119.64.64,0,0,0,.383-.071l1.252-.6,1.98-.951L53.506,78H52.9l1.252.6,1.98.951.455.219a.643.643,0,0,0,.463.06.611.611,0,0,0,.359-.276.6.6,0,0,0,.06-.463A.585.585,0,0,0,57.2,78.732Z" transform="translate(-46.995 -68)" fill="#f8a200"/>
    </g>
  </g>
</svg>
