<svg id="person_add_black_24dp" xmlns="http://www.w3.org/2000/svg" width="50.724" height="50.724" viewBox="0 0 50.724 50.724">
  <path id="Path_10690" data-name="Path 10690" d="M0,0H50.724V50.724H0Z" fill="none"/>
  <path id="Path_10691" data-name="Path 10691" d="M30.589,20.908a8.454,8.454,0,1,0-8.454-8.454A8.452,8.452,0,0,0,30.589,20.908Zm0-12.681a4.227,4.227,0,1,1-4.227,4.227A4.239,4.239,0,0,1,30.589,8.227Zm0,16.908c-5.643,0-16.908,2.832-16.908,8.454v4.227H47.5V33.589C47.5,27.967,36.232,25.135,30.589,25.135ZM17.908,33.589c.465-1.522,7-4.227,12.681-4.227,5.706,0,12.258,2.726,12.681,4.227Zm-6.34-6.34v-6.34h6.34V16.681h-6.34V10.34H7.34v6.34H1v4.227H7.34v6.34Z" transform="translate(1.113 4.454)" fill="#fff"/>
</svg>
